<svg width="1440" height="275" viewBox="0 0 1440 275" fill="none" xmlns="http://www.w3.org/2000/svg">
<path d="M1141.32 121.406C1136.68 123.197 1129.03 121.768 1123.61 123.705C1125.62 119.692 1112.82 118.021 1113.93 114.43C1114.15 113.663 1112.55 113.457 1110.61 113.801C1109.16 114.059 1107.98 114.335 1106.15 113.956C1102.18 113.129 1087.48 111.665 1084.67 112.182C1079.33 113.164 1070.8 112.036 1068.89 115.799C1068.11 117.315 1059.05 119.64 1050.8 119.244C1042.92 118.865 1037.1 117.306 1034.24 114.602C1033.11 113.543 1035.09 111.82 1031.86 111.459C1026.84 110.89 1035.44 108.298 1028.9 109.056C1025.81 109.417 1014.87 108.022 1018.68 111.941C1019.71 113 1016.25 113.336 1013.69 113.164C1010.83 112.974 1009.23 112.208 1010.76 111.26C1016.18 107.876 1009.8 107.738 1002.7 107.6C992.416 107.393 981.878 107.936 972.018 106.326C966.949 105.499 965.544 107.91 961.279 107.919C956.186 107.807 955.76 105.568 951.043 105.283V105.301C948.308 104.93 946.25 105.016 946.526 106.265C946.853 107.686 943.716 108.091 940.982 108.634C928.562 108.41 916.444 108.651 905.68 111.157C904.652 111.398 903.347 111.82 902.419 111.751C883.702 110.348 869.275 114.516 853.544 116.471C675.382 138.639 497.445 161.014 319.559 183.424C119.318 208.641 -80.8228 233.944 -280.964 259.23C-321.684 264.371 -362.304 269.608 -402.975 274.792C-402.975 263.321 -402.975 251.849 -402.975 240.377C-399.036 238.758 -393.566 238.086 -388.021 237.397C-203.587 214.221 -19.0769 191.132 165.207 167.835C332.255 146.718 499.453 125.746 666.249 104.414C701.877 99.8576 737.529 95.3103 773.232 90.8319C779.88 89.9965 786.604 89.2127 794.508 88.9716C777.121 87.6797 772.63 86.0089 771.475 80.4626C771.124 78.7401 769.769 77.0693 769.368 75.3554C768.339 70.8598 774.411 67.8454 787.533 67.8196C806.526 67.7765 824.741 66.2005 843.358 65.4684C848.827 65.5804 852.39 64.8741 854.372 62.988C856.53 60.9297 858.712 58.8024 863.781 57.2694C883.325 55.3575 903.447 55.8398 923.369 55.6417C929.842 55.5814 935.136 55.1938 934.559 51.8953C920.483 53.8589 913.182 49.3977 902.368 48.0714C899.232 47.6839 896.548 46.7537 893.311 47.701C877.831 52.1967 857.759 52.3087 839.745 54.3584C834.2 54.9871 828.504 55.4522 824.515 57.1144C822.934 57.7776 820.626 58.3374 818.092 58.3718C783.82 58.8799 754.163 64.6588 723.052 68.5344C580.141 86.319 436.728 103.621 294.168 121.733C179.408 136.305 64.2963 150.541 -50.3136 165.234C-161.436 179.47 -272.759 193.517 -384.107 207.538C-390.154 208.296 -396.577 209.545 -403 207.693C-403 181.305 -403 154.917 -403 128.528C-346.473 121.561 -289.946 114.593 -233.419 107.617C-219.669 105.921 -206.121 104.017 -192.171 102.571C-183.942 101.718 -177.87 98.5141 -170.493 98.8069C-160.282 99.2203 -153.056 97.4462 -144.877 96.5074C-121.518 93.8462 -98.5361 90.8147 -75.5288 87.8262C-70.1345 87.1286 -64.0628 86.3879 -60.2743 85.0185C-56.4104 83.6233 -57.0628 79.0846 -48.5323 83.9592C-48.0807 84.2176 -43.8656 83.83 -41.6075 83.5544C-22.3888 81.1688 -3.19513 78.7487 15.9734 76.32C20.5899 75.7344 25.7584 75.4071 26.0846 73.099C26.2101 72.1861 29.4466 71.2732 31.1778 72.1602C36.823 75.0626 42.8696 72.875 47.6116 72.2722C115.705 63.6856 183.924 55.2283 251.717 46.3575C283.555 42.1891 315.921 38.3566 348.237 34.5413C366.703 32.3624 368.459 30.261 357.219 24.706C352.402 22.3204 353.807 20.1673 358.348 17.9798C369.187 12.7434 384.266 10.8745 402.129 11.865C426.868 13.2343 451.732 14.1558 476.721 14.707C477.549 14.7243 478.553 14.6468 479.205 14.7759C497.571 18.6515 513.678 14.9137 530.413 13.0707C537.363 12.3042 542.456 11.4429 545.066 8.62669C548.001 5.44873 558.639 4.50137 566.467 6.55973C572.338 8.10995 576.629 7.06786 581.421 6.4736C661.582 -3.36174 741.769 -13.1971 821.881 -23.1013C911.401 -34.1682 1000.85 -45.3126 1090.32 -56.4054C1094.51 -56.9221 1098.34 -57.5767 1103.36 -56.6465C1106.17 -56.1298 1113.72 -55.0619 1111.74 -58.4551C1111.19 -59.3939 1115.3 -59.4197 1117.31 -59.6695C1160.29 -65.1125 1203.42 -70.4177 1246.35 -75.9124C1288.98 -81.3727 1331.58 -86.8932 1373.88 -92.6549C1385.5 -94.231 1395.46 -94.3515 1405.72 -91.8712C1413.82 -89.9075 1422.4 -88.1765 1430.46 -86.1956C1437.66 -84.4301 1441.12 -81.9239 1440.67 -78.7287C1445.54 -82.6129 1447.02 -86.6693 1448.77 -90.7171C1451.73 -87.2635 1448.65 -83.9908 1446.74 -80.7181C1443.7 -75.4904 1437.01 -70.3747 1443.8 -64.9058C1444.41 -64.4149 1443.1 -63.545 1442.17 -62.9422C1432.69 -56.9394 1428 -50.4284 1425.01 -43.7452C1423.76 -40.9548 1420.5 -38.9653 1412.27 -37.8629C1407.25 -37.1912 1406.77 -35.0295 1405.14 -33.462C1404.11 -32.4802 1407.68 -31.2831 1410.11 -31.3347C1421.85 -31.5587 1418.31 -28.3635 1420.17 -26.374C1425.09 -21.4133 1423.73 -16.2717 1423.88 -11.1645C1423.88 -6.86696 1423.88 -2.56939 1423.88 1.71957C1419.62 7.998 1418.97 14.5004 1414.12 20.7529C1408.6 22.1309 1404.49 20.6582 1400.75 19.7539C1356.24 8.99703 1306.61 3.04587 1252.9 0.599953C1217.75 -0.99334 1182.77 -2.11292 1147.67 0.677483C1142.35 1.09949 1137.16 1.54733 1132.29 2.39996C1122.2 4.01909 1111.49 5.21619 1102.26 7.43819C1092.47 7.88602 1082.54 7.29177 1072.78 7.89464C1068.09 8.10133 1063.37 8.04968 1058.65 7.97218C1049.82 7.27457 1041.87 8.10135 1034.39 9.68603C1033.39 9.90995 1032.31 10.0822 1031.18 10.2286C1005.69 12.7779 985.441 27.5912 991.939 36.4447C998.136 44.9021 1002.45 49.1479 1013.99 53.5058C1017.1 50.8532 1013.27 47.9939 1016.85 45.4877C1020.01 43.9461 1024.68 43.8858 1029.25 44.2303C1043.55 45.3068 1058.2 45.4446 1072.58 46.3489C1094.15 47.7097 1111.32 51.3097 1123.99 57.4675C1130.01 60.3871 1136.66 63.1603 1142.55 66.1143C1147.5 68.5947 1152.36 71.1268 1152.21 74.3392C1150.66 78.7229 1158.96 82.1936 1161.95 86.1726C1167.47 93.5017 1166.89 100.521 1160.82 107.643C1157.88 111.08 1153.82 114.37 1150.71 117.78C1150.36 118.943 1149.53 120.045 1146.94 120.889C1145.36 121.354 1143.58 121.595 1141.45 121.449L1141.32 121.406Z" fill="#F0E0B2"/>
</svg>
